<?xml version="1.0" encoding="UTF-8" standalone="no"?>
<!-- Created with Inkscape (http://www.inkscape.org/) -->

<svg
  width="160.81346mm"
  height="38.084625mm"
  viewBox="0 0 160.81346 38.084625"
  version="1.1"
  id="svg1"
  xml:space="preserve"
  inkscape:version="1.3.2 (091e20ef0f, 2023-11-25)"
  sodipodi:docname="AwooAPI-Logo.svg"
  xmlns:inkscape="http://www.inkscape.org/namespaces/inkscape"
  xmlns:sodipodi="http://sodipodi.sourceforge.net/DTD/sodipodi-0.dtd"
  xmlns="http://www.w3.org/2000/svg"
  xmlns:svg="http://www.w3.org/2000/svg"><sodipodi:namedview
     id="namedview1"
     pagecolor="#ffffff"
     bordercolor="currentColor"
     borderopacity="0.25"
     inkscape:showpageshadow="2"
     inkscape:pageopacity="0.0"
     inkscape:pagecheckerboard="0"
     inkscape:deskcolor="#d1d1d1"
     inkscape:document-units="mm"
     inkscape:zoom="1.0129245"
     inkscape:cx="488.684"
     inkscape:cy="54.298223"
     inkscape:window-width="1920"
     inkscape:window-height="1008"
     inkscape:window-x="0"
     inkscape:window-y="0"
     inkscape:window-maximized="1"
     inkscape:current-layer="layer1" /><defs
     id="defs1"><rect
       x="186.11311"
       y="31.479242"
       width="572.27844"
       height="102.97556"
       id="rect1" /></defs><g
     inkscape:label="Ebene 1"
     inkscape:groupmode="layer"
     id="layer1"
     transform="translate(-24.593266,-129.45769)"><g
       id="g3"
       transform="translate(17.547706,124.27228)"><path
         style="fill:currentColor;stroke-width:0.265358"
         d="M 13.884717,43.156902 C 12.750228,42.959282 11.262674,42.375829 10.374254,41.780018 10.200486,41.663481 9.7265741,41.232285 9.3211155,40.821806 8.1610307,39.647353 7.5232317,38.438563 7.1697695,36.744471 7.0534461,36.186949 7.045276,35.381038 7.0455674,24.492955 7.0458593,13.885359 7.0564948,12.777581 7.1640322,12.163328 7.2940785,11.420498 7.6065352,10.470172 7.9347476,9.8192201 9.0816669,7.5445063 11.417163,5.7949727 13.990031,5.2831717 c 0.408303,-0.081221 2.499242,-0.097763 12.356829,-0.097763 11.09774,0 11.898346,0.00801 12.375125,0.1238744 1.164984,0.2830996 2.433562,0.8810543 3.316646,1.5633266 0.523159,0.4041958 1.378195,1.3024002 1.769051,1.8583674 0.640149,0.9105675 1.144204,2.0874769 1.419232,3.3137379 l 0.183585,0.818544 0.0049,11.466694 c 0.0054,12.646451 0.02681,11.991694 -0.434733,13.300641 -0.947038,2.685816 -2.654218,4.374089 -5.285506,5.226971 -1.35491,0.439167 -0.625494,0.416991 -13.478929,0.409829 -10.026262,-0.0056 -11.82163,-0.02168 -12.331523,-0.110492 z m 7.054724,-2.853571 c 1.392387,-1.050247 2.06751,-1.692935 2.435078,-2.318097 0.337889,-0.57468 0.733421,-1.452097 1.46134,-3.241728 0.298421,-0.733686 0.748771,-1.823685 1.000776,-2.422219 0.252007,-0.598533 0.606565,-1.467373 0.787911,-1.930754 1.024231,-2.617172 1.702841,-3.943144 2.874545,-5.61674 1.239483,-1.770406 2.389343,-2.968213 4.104303,-4.275445 1.443063,-1.09998 1.670934,-1.359214 1.688148,-1.920522 0.0082,-0.267871 -0.06909,-0.283827 -0.596174,-0.123049 -0.777663,0.237214 -2.703394,0.602062 -2.94176,0.557344 -0.296121,-0.05555 -0.574847,-0.302386 -0.641545,-0.568131 -0.06963,-0.277437 0.129197,-0.999226 0.461147,-1.674053 0.296558,-0.602879 1.508824,-2.476462 1.918709,-2.965408 0.286786,-0.3421 0.3656,-0.674776 0.294561,-1.24334 -0.03955,-0.316513 -0.07341,-0.389959 -0.179817,-0.389959 -0.133077,0 -0.652534,-0.466924 -0.838892,-0.754051 l -0.102078,-0.157275 -0.561672,0.362003 c -0.308922,0.199101 -1.161965,0.708299 -1.89565,1.131547 -0.733688,0.423249 -1.469305,0.862565 -1.634708,0.97626 -0.610182,0.419427 -0.83921,0.481614 -1.495727,0.406138 -0.766573,-0.08813 -1.598685,-0.08629 -2.170364,0.0048 -1.142968,0.182126 -3.525955,1.185491 -4.152347,1.748361 l -0.305942,0.274916 0.224968,0.08057 c 0.762183,0.27296 1.017204,0.542375 0.7435,0.785467 -0.115356,0.102452 -0.185045,0.101226 -0.828049,-0.01459 -1.866184,-0.336123 -2.889584,-0.422922 -5.52898,-0.46894 -1.758154,-0.03065 -2.58019,-0.02187 -2.58019,0.02758 0,0.169938 0.628347,1.50005 0.925781,1.959732 0.177955,0.27503 0.537219,0.726549 0.798366,1.003376 1.11599,1.183011 2.082357,1.718842 3.423762,1.89841 0.979796,0.131164 0.934165,0.148396 1.210024,-0.456938 0.132955,-0.291753 0.241812,-0.552404 0.241903,-0.579226 9e-5,-0.02682 -0.260135,-0.03823 -0.57828,-0.02534 -0.318145,0.01287 -0.768436,-0.01279 -1.000647,-0.05706 -0.921917,-0.175728 -2.11792,-0.952677 -2.792603,-1.814135 -0.342623,-0.437474 -0.575215,-0.846757 -0.515269,-0.906704 0.0211,-0.0211 0.220896,0.01178 0.443985,0.07308 0.223089,0.0613 0.737355,0.175792 1.142813,0.254434 0.405459,0.07864 1.353284,0.270519 2.106278,0.426398 1.700503,0.352023 2.477474,0.415983 3.045916,0.250731 0.225187,-0.06546 0.426894,-0.101563 0.448238,-0.08022 0.06587,0.06587 -0.113738,0.566624 -0.409308,1.141143 -0.155198,0.301666 -0.671975,1.37747 -1.148392,2.390672 -0.823685,1.751741 -0.857153,1.840137 -0.681688,1.800472 0.506228,-0.11443 1.915153,-0.620656 2.255697,-0.810467 0.212383,-0.118379 0.711113,-0.421162 1.108289,-0.672857 0.397176,-0.251692 0.741625,-0.438135 0.765443,-0.414319 0.02382,0.02383 -0.01126,0.244907 -0.07796,0.491307 -0.111473,0.411814 -0.284201,0.85346 -0.97885,2.502805 -0.178329,0.423418 -0.225353,0.602596 -0.161876,0.616803 0.119351,0.02671 1.457436,-0.441868 1.903895,-0.666722 0.19511,-0.09827 0.679943,-0.397079 1.077406,-0.664034 0.397464,-0.266956 0.804462,-0.516474 0.904441,-0.554487 0.215858,-0.08207 0.444073,-0.02492 0.444073,0.11123 0,0.0534 0.05205,0.126223 0.115667,0.161824 0.102643,0.05744 0.08242,0.133416 -0.179567,0.674688 -0.287149,0.593244 -0.310995,0.620192 -0.870419,0.983501 -0.856796,0.556434 -1.639272,0.925056 -2.485788,1.171043 -0.670856,0.194942 -0.887794,0.224009 -1.899654,0.254531 l -1.14231,0.03445 0.06821,-0.179414 c 0.03752,-0.09868 0.14435,-0.331461 0.237407,-0.517294 0.192444,-0.384312 0.4695,-1.163896 0.4695,-1.321089 0,-0.124105 -0.01321,-0.125512 -0.342901,-0.03646 -1.263488,0.341272 -1.525012,0.379263 -2.620458,0.380653 -0.606547,7.96e-4 -1.123401,-0.01919 -1.148565,-0.04435 -0.02516,-0.02516 0.22697,-0.586517 0.560297,-1.247452 0.333328,-0.660935 0.587666,-1.231446 0.565196,-1.267803 -0.02247,-0.03636 -0.150359,-0.06611 -0.284197,-0.06611 -0.133839,0 -0.422451,-0.06295 -0.64136,-0.139891 l -0.398017,-0.139892 -0.213367,0.262758 c -0.117352,0.144519 -0.735207,0.799791 -1.373013,1.456162 -1.583805,1.62991 -3.909096,4.015931 -5.0297133,5.161077 -0.5641303,0.576479 -0.9476077,1.02628 -0.9779203,1.147055 -0.062475,0.248921 0.023765,1.361352 0.1193898,1.540025 0.092208,0.172294 0.3006167,0.122375 0.7843025,-0.187857 0.1999925,-0.128274 0.7676523,-0.466749 1.2614663,-0.752165 1.423831,-0.822949 3.646984,-2.21495 3.865359,-2.420247 0.208368,-0.19589 3.623814,-1.951489 3.682456,-1.892848 0.09259,0.09259 -1.178173,1.615281 -2.551191,3.05696 -0.533253,0.559921 -1.145629,1.207657 -1.360836,1.439415 -0.215207,0.231761 -0.884487,0.942628 -1.48729,1.57971 -1.692982,1.789249 -1.74072,1.853657 -1.609215,2.171136 0.04389,0.105966 0.235508,0.311408 0.425812,0.456535 l 0.346009,0.26387 0.264607,-0.162922 c 0.145534,-0.08961 0.548954,-0.401044 0.89649,-0.69208 0.61285,-0.513221 1.944916,-1.590733 2.948532,-2.385079 0.270165,-0.213831 0.870877,-0.767914 1.334915,-1.231295 0.805412,-0.80427 1.765145,-1.535077 3.216798,-2.449494 0.238371,-0.150153 0.599271,-0.379534 0.802,-0.509734 0.202729,-0.130201 0.368312,-0.212711 0.36796,-0.183355 -3.45e-4,0.02936 -0.285363,0.416708 -0.63336,0.860781 -0.347997,0.444074 -0.829521,1.05906 -1.070053,1.366631 -0.442551,0.565899 -2.49705,3.136394 -3.537241,4.425635 -0.643408,0.797456 -1.04891,1.406086 -1.116662,1.67603 -0.03813,0.151933 -0.02215,0.184516 0.09051,0.184516 0.113991,0 0.683097,0.242856 1.150304,0.490872 0.210304,0.111642 1.210737,-0.646589 2.308774,-1.749822 1.140694,-1.146091 1.949282,-2.120034 2.712318,-3.266983 0.655835,-0.985809 2.913573,-3.899181 3.021701,-3.899181 0.184758,0 -0.330503,1.363509 -1.207189,3.194524 -0.258844,0.540611 -0.68416,1.472638 -0.945149,2.071173 -0.476666,1.093155 -1.26096,2.811671 -2.355085,5.16038 -0.485731,1.042694 -1.015968,2.328207 -1.015968,2.463123 0,0.08597 0.942761,-0.461481 1.437983,-0.835017 z M 23.538936,18.15657 c 0.139031,-1.050069 0.551971,-1.850537 1.211661,-2.348743 0.510463,-0.385512 0.993266,-0.549779 1.591454,-0.541474 0.519117,0.0072 1.530072,0.21126 1.563775,0.31563 0.02574,0.07974 -0.686759,0.430318 -1.624518,0.799324 -0.67995,0.267558 -1.327625,0.720078 -1.649878,1.152741 -0.215964,0.28996 -0.976284,0.956016 -1.091311,0.956016 -0.02494,0 -0.02547,-0.150073 -0.0013,-0.333494 z m 2.149669,21.349385 c 0.672759,-0.525711 1.774634,-1.447819 2.350455,-1.966979 l 0.639061,-0.576179 0.04711,-3.953121 c 0.0259,-2.174215 0.0665,-4.245365 0.0902,-4.602555 0.04663,-0.702795 -0.03409,-0.860752 -0.179409,-0.351045 -0.04679,0.164113 -0.36497,1.167227 -0.707069,2.229142 -0.342102,1.061917 -0.753728,2.373074 -0.914726,2.913685 -0.160998,0.540611 -0.401094,1.322243 -0.533547,1.736961 -0.132454,0.414714 -0.287632,0.955856 -0.344841,1.20253 -0.121653,0.524559 -0.672148,2.445421 -0.917615,3.201871 -0.09363,0.288542 -0.17024,0.551345 -0.17024,0.584008 0,0.05992 0.174104,-0.05377 0.640616,-0.418318 z m 13.329758,-3.462928 c 0.665536,-0.339534 0.881739,-1.100771 0.467048,-1.644457 -0.302792,-0.396981 -0.571371,-0.532109 -1.058212,-0.532417 -0.491711,-2.65e-4 -0.792932,0.168176 -1.018637,0.569766 -0.336912,0.599451 -0.09187,1.202344 0.658862,1.621068 0.28773,0.160483 0.618517,0.155627 0.950939,-0.01396 z m -7.26083,-0.459669 c 1.897775,-0.761604 3.914837,-2.08674 5.193493,-3.411934 1.805346,-1.871057 2.65053,-3.144372 3.571985,-5.381389 0.317599,-0.771034 0.803063,-2.53499 0.951008,-3.455532 0.203736,-1.26771 0.154544,-3.444334 -0.11028,-4.879352 C 41.122733,17.149205 40.377568,15.290628 39.477658,13.75094 38.23107,11.618102 36.234077,9.5705825 34.297145,8.439354 32.762376,7.5430017 30.856927,6.888425 28.69698,6.5155388 27.672837,6.3387308 25.076674,6.2969157 24.100165,6.4414959 c -3.834105,0.5676695 -7.148686,2.2894545 -9.34074,4.8521191 -1.017578,1.18962 -1.593558,2.041307 -2.211025,3.269389 l -0.280063,0.557015 0.860847,2.34e-4 c 0.473466,1.3e-4 1.363488,0.02107 1.977827,0.04656 1.078096,0.04471 1.115614,0.04165 1.077764,-0.08799 -0.4062,-1.391314 -0.825663,-3.030278 -0.825663,-3.226104 0,-0.07045 0.07662,-0.102739 0.243832,-0.102739 0.301825,0 2.191232,0.419502 3.158544,0.701286 1.036575,0.301961 2.626998,0.978093 2.931864,1.246415 0.109251,0.09615 0.17262,0.07942 0.666988,-0.176164 0.658962,-0.340669 1.736763,-0.692923 2.427293,-0.793303 0.27835,-0.04046 1.04319,-0.06439 1.699646,-0.05318 l 1.193558,0.02038 0.59678,-0.356245 c 0.328226,-0.195938 0.754749,-0.452459 0.947823,-0.57005 2.412679,-1.469435 3.736318,-2.1763429 4.192004,-2.2388029 0.29356,-0.040236 0.33892,-0.024466 0.594728,0.2066289 0.300088,0.271111 0.563259,0.75511 0.876161,1.611351 0.182896,0.500486 0.199242,0.623742 0.195535,1.474395 -0.0029,0.66703 -0.03958,1.056676 -0.130299,1.38461 -0.06944,0.250997 -0.21304,0.772303 -0.319122,1.158452 -0.10608,0.386151 -0.267791,0.867123 -0.359361,1.068821 -0.09157,0.201702 -0.187828,0.451754 -0.213908,0.555668 -0.04143,0.165081 -0.03058,0.182449 0.08595,0.137559 0.334046,-0.128678 1.013503,-0.250565 1.402055,-0.251509 0.386648,-0.0011 0.452916,0.02187 0.714572,0.245822 0.361823,0.309707 0.468911,0.617411 0.467247,1.342586 -0.0011,0.497161 -0.02996,0.629599 -0.221754,1.019197 -0.31606,0.642007 -0.779685,1.085579 -2.930837,2.804068 -1.172298,0.936509 -1.913459,1.774984 -2.591881,2.932189 -0.5869,1.001094 -0.72669,2.042809 -0.778621,5.802267 -0.01974,1.428758 -0.05023,3.155012 -0.06776,3.836116 l -0.03188,1.238375 0.51097,-0.130898 c 0.281033,-0.072 0.793266,-0.244188 1.138293,-0.382652 z m 2.085574,-5.64633 c -1.399051,-0.03739 -1.422917,-0.04059 -1.592959,-0.213483 -0.09494,-0.09654 -0.19373,-0.262195 -0.219528,-0.368125 -0.03878,-0.15925 -0.0043,-0.235243 0.199305,-0.438809 l 0.246205,-0.246205 h 1.750013 c 1.724176,0 1.752198,0.0024 1.897994,0.15797 0.269147,0.287319 0.318469,0.529137 0.160164,0.785277 -0.169728,0.274624 -0.414536,0.395611 -0.760884,0.376033 -0.142988,-0.0081 -0.899128,-0.03178 -1.68031,-0.05266 z m 1.80648,-2.744899 c -1.0233,-0.02643 -2.069192,-0.05217 -2.324206,-0.0572 -0.387465,-0.0076 -0.494189,-0.03742 -0.649434,-0.181303 -0.268723,-0.249041 -0.256132,-0.598658 0.03024,-0.839621 l 0.216015,-0.181765 h 2.494064 2.494064 l 0.23871,0.238713 c 0.273054,0.273053 0.293478,0.414004 0.10206,0.704379 -0.157384,0.238751 -0.400019,0.390413 -0.600545,0.375383 -0.07723,-0.0058 -0.977663,-0.03216 -2.000965,-0.05859 z m 1.158454,-2.448119 c -0.926762,-0.02224 -1.736335,-0.06598 -1.799052,-0.0972 -0.187529,-0.09337 -0.368548,-0.496203 -0.316378,-0.704055 0.09877,-0.393536 0.155826,-0.40181 2.844899,-0.412613 l 2.466485,-0.0099 0.209911,0.20111 c 0.285361,0.273393 0.283564,0.569405 -0.0051,0.846242 -0.209598,0.200982 -0.234069,0.206345 -0.965377,0.211532 -0.412679,0.0029 -1.508586,-0.01287 -2.435348,-0.0351 z M 20.703546,11.278877 c -0.272171,-0.13408 -0.49935,-0.46452 -0.499733,-0.726876 -1.57e-4,-0.107603 0.0825,-0.259229 0.205603,-0.377172 0.167838,-0.160799 0.294128,-0.2063663 0.683673,-0.2466874 0.666832,-0.06902 1.066538,0.016081 1.304501,0.2777604 0.249101,0.273919 0.244175,0.498058 -0.0175,0.796084 -0.335387,0.381983 -1.180049,0.521484 -1.67655,0.276891 z m -8.63509,13.628044 c 0.323179,-0.332239 1.085208,-1.112102 1.693395,-1.733028 0.608188,-0.620927 1.105796,-1.169064 1.105796,-1.218078 0,-0.04901 -0.105177,-0.139029 -0.233727,-0.200029 -0.614778,-0.291732 -1.861164,-1.471463 -2.411772,-2.282792 -0.267791,-0.394597 -0.607168,-1.069846 -0.723379,-1.43929 -0.07612,-0.242004 -0.211794,-0.48487 -0.211794,-0.379135 0,0.01929 -0.08365,0.586419 -0.185893,1.260256 -0.242981,1.6014 -0.256296,3.536817 -0.03403,4.946246 0.128964,0.817777 0.325556,1.649918 0.389791,1.649918 0.01321,0 0.288431,-0.27183 0.611611,-0.604068 z"
         id="path1" /><g
         id="g2"
         transform="translate(0,0.76307121)"><path
           style="font-weight:800;font-stretch:semi-condensed;font-size:74.6667px;font-family:'Noto Sans';-inkscape-font-specification:'Noto Sans, Ultra-Bold Semi-Condensed';white-space:pre;shape-padding:0.354496;stroke-width:1.00157"
           d="m 221.71143,106.87402 -2.98666,-11.573339 h -15.97868 l -2.98667,11.573339 h -13.29067 l 16.27734,-53.461359 h 15.75468 l 16.42667,53.461359 z m -8.36267,-33.450682 q -0.37333,-1.493335 -0.896,-3.584002 -0.52266,-2.090668 -1.04533,-4.181335 -0.448,-2.165335 -0.74667,-3.658669 -0.224,1.493334 -0.74667,3.658669 -0.448,2.090667 -0.97066,4.181335 -0.448,2.090667 -0.82134,3.584002 l -2.912,11.648005 h 11.05067 z m 54.73071,16.202674 q -0.37334,-1.792001 -0.896,-4.480002 -0.52267,-2.762668 -0.97067,-5.301336 -0.448,-2.613335 -0.74667,-4.106669 h -0.224 q -0.224,1.568001 -0.74666,4.181336 -0.52267,2.613334 -1.04534,5.376002 -0.52266,2.688001 -0.896,4.480002 l -3.584,17.098675 H 245.97812 L 235.59945,65.882001 h 11.79734 l 3.584,16.053341 q 0.37334,1.866667 0.74667,4.330668 0.37333,2.464002 0.672,4.928003 0.29867,2.464001 0.448,4.405335 h 0.29867 q 0.0747,-1.792001 0.37333,-4.181335 0.37333,-2.464001 0.74667,-4.778669 0.448,-2.314668 0.74666,-3.733335 l 3.80801,-17.024008 h 13.36534 l 3.65866,17.173341 q 0.29867,1.642668 0.67201,3.957335 0.37333,2.314668 0.672,4.629336 0.37333,2.240001 0.52266,3.957335 h 0.29867 q 0.14933,-1.792001 0.37333,-4.181335 0.29867,-2.389335 0.672,-4.778669 0.448,-2.464001 0.82134,-4.405336 l 3.808,-16.352007 h 11.648 l -10.528,40.992019 h -13.14134 z m 68.24542,-3.360002 q 0,6.34667 -2.09066,11.200006 -2.09067,4.778664 -6.27201,7.466674 -4.18133,2.688 -10.37867,2.688 -5.74933,0 -9.93067,-2.688 -4.10667,-2.68801 -6.42134,-7.466674 -2.24,-4.778669 -2.24,-11.200006 0,-9.781338 4.77867,-15.456007 4.85334,-5.674669 14.03734,-5.674669 5.45067,0 9.63201,2.464001 4.18133,2.389334 6.496,7.168003 2.38933,4.704002 2.38933,11.498672 z m -25.16267,0.07467 q 0,5.824003 1.49333,8.810671 1.568,2.986668 5.07734,2.986668 3.50933,0 5.00266,-2.986668 1.49334,-2.986668 1.49334,-8.885338 0,-5.824002 -1.568,-8.736004 -1.49334,-2.912001 -5.00267,-2.912001 -3.43467,0 -5.00267,2.912001 -1.49333,2.912002 -1.49333,8.810671 z m 68.54398,-0.07467 q 0,6.34667 -2.09066,11.200006 -2.09067,4.778664 -6.27201,7.466674 -4.18133,2.688 -10.37867,2.688 -5.74933,0 -9.93067,-2.688 -4.10667,-2.68801 -6.42134,-7.466674 -2.24,-4.778669 -2.24,-11.200006 0,-9.781338 4.77867,-15.456007 4.85334,-5.674669 14.03734,-5.674669 5.45067,0 9.63201,2.464001 4.18133,2.389334 6.496,7.168003 2.38933,4.704002 2.38933,11.498672 z m -25.16267,0.07467 q 0,5.824003 1.49333,8.810671 1.568,2.986668 5.07734,2.986668 3.50933,0 5.00266,-2.986668 1.49334,-2.986668 1.49334,-8.885338 0,-5.824002 -1.568,-8.736004 -1.49334,-2.912001 -5.00267,-2.912001 -3.43467,0 -5.00267,2.912001 -1.49333,2.912002 -1.49333,8.810671 z m 80.63995,20.533343 -2.98667,-11.573339 h -15.97867 l -2.98667,11.573339 H 399.9408 l 16.27734,-53.461359 h 15.75467 l 16.42668,53.461359 z m -8.36267,-33.450682 q -0.37333,-1.493335 -0.896,-3.584002 -0.52267,-2.090668 -1.04534,-4.181335 -0.448,-2.165335 -0.74666,-3.658669 -0.224,1.493334 -0.74667,3.658669 -0.448,2.090667 -0.97067,4.181335 -0.448,2.090667 -0.82133,3.584002 l -2.912,11.648005 h 11.05067 z m 43.75471,-19.861343 q 9.48267,0 14.03734,4.405335 4.62933,4.330669 4.62933,12.320006 0,5.002669 -1.94133,9.184004 -1.86667,4.106669 -6.04801,6.57067 -4.18133,2.464001 -11.12533,2.464001 h -3.80801 V 106.87402 H 454.07417 V 53.561995 Z M 469.97818,63.642 h -3.65867 v 14.70934 h 2.61334 q 3.584,0 5.824,-1.792001 2.24,-1.792001 2.24,-5.973336 0,-6.944003 -7.01867,-6.944003 z m 48.53332,43.23202 h -24.19201 v -6.79467 l 5.97334,-2.688001 v -34.42135 l -5.97334,-2.613334 v -6.79467 h 24.19201 v 6.79467 l -5.97334,2.613334 v 34.42135 l 5.97334,2.688001 z"
           id="text1"
           transform="matrix(0.35694488,0,0,0.35694488,-17.884703,-10.751083)"
           aria-label="Awoo API" /><path
           style="font-style:italic;font-weight:200;font-size:7.99773px;font-family:'Noto Sans';-inkscape-font-specification:'Noto Sans, Ultra-Light Italic';stroke-width:0.214562"
           d="m 48.780791,36.679554 1.207657,-5.710379 h 1.455587 q 0.823766,0 1.215655,0.311911 0.391889,0.303914 0.391889,0.863755 0,0.631821 -0.359898,1.031707 -0.359898,0.391889 -0.983721,0.503857 l -0.008,0.016 q 0.45587,0.111968 0.695802,0.415882 0.24793,0.303913 0.24793,0.783777 0,0.615825 -0.303914,1.007714 -0.295916,0.391889 -0.815768,0.583834 -0.511855,0.191946 -1.159671,0.191946 z m 2.207374,-3.13511 q 0.767782,0 1.247645,-0.327907 0.487862,-0.335905 0.487862,-1.0557 0,-0.903744 -1.335621,-0.903744 h -1.135678 l -0.487861,2.287351 z m -0.543846,2.855189 q 0.519852,0 0.943732,-0.151956 0.42388,-0.159955 0.671809,-0.487862 0.255928,-0.335905 0.255928,-0.863755 0,-0.559841 -0.375894,-0.815768 -0.367895,-0.263925 -1.031707,-0.263925 h -1.199659 l -0.551843,2.583266 z m 4.254789,0.359898 q -0.519853,0 -0.799773,-0.263925 -0.279921,-0.271923 -0.279921,-0.783777 0,-0.127964 0.016,-0.263925 0.02399,-0.14396 0.05598,-0.295916 l 0.567839,-2.711231 h 0.311911 l -0.583834,2.751219 q -0.05598,0.263925 -0.05598,0.479864 0,0.415882 0.215939,0.615825 0.215938,0.191946 0.615825,0.191946 0.407884,0 0.783777,-0.24793 0.383891,-0.255927 0.663812,-0.687805 0.27992,-0.439875 0.391889,-0.975723 l 0.45587,-2.127396 h 0.303914 l -0.895746,4.238797 h -0.263925 l 0.199943,-1.047703 h -0.02399 q -0.135961,0.239932 -0.375893,0.503857 -0.231934,0.263925 -0.567839,0.447873 -0.327907,0.17595 -0.735791,0.17595 z m 4.494728,-5.294497 q -0.223936,0 -0.223936,-0.215939 0,-0.127963 0.07198,-0.239931 0.07198,-0.119966 0.215939,-0.119966 0.111968,0 0.159955,0.06398 0.05598,0.06398 0.05598,0.151957 0,0.135962 -0.07998,0.24793 -0.07998,0.111968 -0.199944,0.111968 z m -1.30363,5.21452 0.903744,-4.238797 h 0.303914 l -0.895746,4.238797 z m 1.735515,0 1.287635,-6.078275 h 0.311911 l -1.287635,6.078275 z m 3.079134,0.07998 q -0.591832,0 -0.895746,-0.399886 -0.295916,-0.407884 -0.295916,-1.095689 0,-0.503857 0.135962,-1.015712 0.135961,-0.511855 0.407884,-0.935734 0.271923,-0.431878 0.679807,-0.687805 0.407884,-0.255927 0.943732,-0.255927 0.383891,0 0.631821,0.151957 0.255927,0.143959 0.391889,0.367895 0.143959,0.223937 0.191945,0.463868 h 0.02399 q 0.03999,-0.271922 0.08798,-0.543845 0.05599,-0.279921 0.111969,-0.543846 l 0.3519,-1.663528 h 0.303913 l -1.287634,6.078275 h -0.255927 l 0.199943,-1.0557 h -0.02399 q -0.167953,0.263925 -0.42388,0.52785 -0.24793,0.263925 -0.567839,0.439875 -0.319909,0.167952 -0.711798,0.167952 z m 0.06398,-0.27992 q 0.359898,0 0.7038,-0.207941 0.3519,-0.215939 0.639819,-0.583835 0.287918,-0.375893 0.45587,-0.855757 0.17595,-0.487861 0.17595,-1.023709 0,-0.575837 -0.287918,-0.871753 Q 64.16844,32.6407 63.688576,32.6407 q -0.455871,0 -0.807771,0.231935 -0.343902,0.231934 -0.575836,0.615825 -0.231934,0.383891 -0.3519,0.847759 -0.119966,0.463868 -0.119966,0.927737 0,0.583834 0.231934,0.903743 0.231934,0.311912 0.7038,0.311912 z m 4.454733,-5.014577 q -0.223936,0 -0.223936,-0.215939 0,-0.127963 0.07198,-0.239931 0.07198,-0.119966 0.215939,-0.119966 0.111968,0 0.159954,0.06398 0.05598,0.06398 0.05598,0.151957 0,0.135962 -0.07998,0.24793 -0.07998,0.111968 -0.199943,0.111968 z m -1.30363,5.21452 0.903744,-4.238797 h 0.303913 l -0.895745,4.238797 z m 1.727518,0 0.903743,-4.238797 h 0.263925 l -0.191945,1.047703 h 0.016 q 0.135962,-0.239932 0.367896,-0.503857 0.239932,-0.263925 0.567839,-0.439875 0.335904,-0.183948 0.743789,-0.183948 0.519852,0 0.799773,0.271923 0.287918,0.263925 0.287918,0.77578 0,0.127963 -0.02399,0.27992 -0.016,0.143959 -0.04799,0.279921 l -0.575836,2.71123 H 70.438666 L 71.0225,33.936333 q 0.06398,-0.279921 0.06398,-0.487862 0,-0.407884 -0.223937,-0.59983 -0.215938,-0.199943 -0.607827,-0.199943 -0.407884,0 -0.783778,0.255928 -0.375893,0.247929 -0.655814,0.687804 -0.27992,0.431878 -0.391888,0.967726 l -0.455871,2.119398 z m 5.622407,1.919455 q -0.359898,0 -0.663812,-0.07998 -0.303913,-0.07998 -0.52785,-0.183948 v -0.319909 q 0.223937,0.119966 0.543846,0.207941 0.327907,0.09597 0.647816,0.09597 0.711798,0 1.095689,-0.383891 0.383891,-0.375894 0.52785,-1.039705 l 0.07198,-0.327907 q 0.04799,-0.207941 0.111968,-0.479864 0.06398,-0.279921 0.119966,-0.487862 h -0.016 q -0.17595,0.279921 -0.431877,0.551844 -0.255927,0.263925 -0.583834,0.439875 -0.31991,0.167952 -0.695803,0.167952 -0.59983,0 -0.903743,-0.399886 -0.295916,-0.407884 -0.295916,-1.095689 0,-0.503857 0.135961,-1.015712 0.135961,-0.511855 0.407884,-0.935734 0.271923,-0.431878 0.679807,-0.687805 0.407885,-0.263925 0.95173,-0.263925 0.375893,0 0.623823,0.151957 0.255927,0.143959 0.391889,0.375893 0.143959,0.223937 0.191945,0.463868 h 0.02399 l 0.223936,-0.911741 h 0.24793 l -0.95173,4.470731 q -0.167953,0.791775 -0.623823,1.239648 -0.447873,0.447873 -1.30363,0.447873 z m 0.271923,-2.119398 q 0.343902,0 0.687804,-0.207941 0.351901,-0.215939 0.631821,-0.583835 0.287918,-0.367895 0.455871,-0.847759 0.17595,-0.487861 0.17595,-1.031707 0,-0.575837 -0.279921,-0.871753 -0.27992,-0.295916 -0.759784,-0.295916 -0.463868,0 -0.815769,0.231935 -0.343902,0.231934 -0.575836,0.615825 -0.231934,0.383891 -0.3519,0.847759 -0.119966,0.463868 -0.119966,0.927737 0,0.567839 0.223936,0.895746 0.231934,0.319909 0.727794,0.319909 z m 6.534144,0.27992 q -0.559841,0 -0.863755,-0.399886 -0.303913,-0.407884 -0.303913,-1.095689 0,-0.511855 0.135961,-1.02371 0.143959,-0.511854 0.415882,-0.935734 0.271923,-0.42388 0.671809,-0.679807 0.399887,-0.263925 0.911741,-0.263925 0.359898,0 0.583835,0.159955 0.231934,0.151956 0.359898,0.383891 0.127963,0.223936 0.17595,0.447872 h 0.02399 l 0.223936,-0.911741 h 0.24793 l -0.895746,4.238797 h -0.255927 l 0.199943,-1.047703 h -0.02399 q -0.143959,0.239932 -0.383891,0.503857 -0.239932,0.263925 -0.551844,0.447873 -0.311911,0.17595 -0.671809,0.17595 z m 0.06398,-0.27992 q 0.3519,0 0.711798,-0.24793 0.367895,-0.255927 0.647816,-0.687805 0.287918,-0.439875 0.407884,-0.975723 0.09597,-0.471866 0.09597,-0.759784 0,-0.551843 -0.255927,-0.855757 Q 81.49153,32.6407 81.051655,32.6407 q -0.431877,0 -0.77578,0.231935 -0.335904,0.223936 -0.575836,0.607827 -0.231934,0.383891 -0.3519,0.847759 -0.119966,0.463869 -0.119966,0.935735 0,0.567839 0.223936,0.895746 0.231934,0.319909 0.687805,0.319909 z m 4.366765,0.27992 q -0.591832,0 -0.895746,-0.399886 -0.295916,-0.407884 -0.295916,-1.095689 0,-0.503857 0.135962,-1.015712 0.135961,-0.511855 0.407884,-0.935734 0.271923,-0.431878 0.679807,-0.687805 0.407884,-0.255927 0.943732,-0.255927 0.383891,0 0.631821,0.151957 0.255927,0.143959 0.391888,0.367895 0.143959,0.223937 0.191946,0.463868 h 0.02399 q 0.03999,-0.271922 0.08798,-0.543845 0.05598,-0.279921 0.111968,-0.543846 l 0.3519,-1.663528 h 0.303914 l -1.287634,6.078275 h -0.255928 l 0.199943,-1.0557 h -0.02399 q -0.167952,0.263925 -0.423879,0.52785 -0.24793,0.263925 -0.567839,0.439875 -0.319909,0.167952 -0.711798,0.167952 z m 0.06398,-0.27992 q 0.359898,0 0.7038,-0.207941 0.3519,-0.215939 0.639818,-0.583835 0.287919,-0.375893 0.455871,-0.855757 0.17595,-0.487861 0.17595,-1.023709 0,-0.575837 -0.287918,-0.871753 Q 85.970263,32.6407 85.4904,32.6407 q -0.455871,0 -0.807771,0.231935 -0.343902,0.231934 -0.575837,0.615825 -0.231934,0.383891 -0.3519,0.847759 -0.119966,0.463868 -0.119966,0.927737 0,0.583834 0.231934,0.903743 0.231935,0.311912 0.703801,0.311912 z m 3.926883,0.199943 -0.623823,-4.238797 h 0.303914 l 0.42388,2.975156 q 0.03999,0.263925 0.06398,0.503857 0.02399,0.231934 0.03999,0.423879 h 0.016 q 0.111968,-0.215938 0.223936,-0.447873 0.119966,-0.231934 0.263925,-0.487861 l 1.687521,-2.967158 h 0.335905 l -2.415314,4.238797 z m 3.918896,0.07998 q -0.559841,0 -0.863755,-0.399886 -0.303914,-0.407884 -0.303914,-1.095689 0,-0.511855 0.135961,-1.02371 0.14396,-0.511854 0.415882,-0.935734 0.271923,-0.42388 0.67181,-0.679807 0.399886,-0.263925 0.911741,-0.263925 0.359898,0 0.583834,0.159955 0.231934,0.151956 0.359898,0.383891 0.127964,0.223936 0.17595,0.447872 h 0.02399 l 0.223937,-0.911741 h 0.247929 l -0.895745,4.238797 h -0.255928 l 0.199943,-1.047703 h -0.02399 q -0.143959,0.239932 -0.383891,0.503857 -0.239932,0.263925 -0.551843,0.447873 -0.311912,0.17595 -0.671809,0.17595 z m 0.06398,-0.27992 q 0.351901,0 0.711798,-0.24793 0.367896,-0.255927 0.647817,-0.687805 0.287918,-0.439875 0.407884,-0.975723 0.09597,-0.471866 0.09597,-0.759784 0,-0.551843 -0.255927,-0.855757 -0.255927,-0.311912 -0.695802,-0.311912 -0.431878,0 -0.77578,0.231935 -0.335905,0.223936 -0.575837,0.607827 -0.231934,0.383891 -0.3519,0.847759 -0.119966,0.463869 -0.119966,0.935735 0,0.567839 0.223937,0.895746 0.231934,0.319909 0.687804,0.319909 z m 3.015149,0.199943 0.903743,-4.238797 h 0.263926 l -0.191946,1.047703 h 0.016 q 0.135961,-0.239932 0.367895,-0.503857 0.239932,-0.263925 0.567839,-0.439875 0.335905,-0.183948 0.743789,-0.183948 0.519852,0 0.799773,0.271923 0.287918,0.263925 0.287918,0.77578 0,0.127963 -0.02399,0.27992 -0.016,0.143959 -0.04799,0.279921 l -0.575836,2.71123 h -0.319909 l 0.583834,-2.743221 q 0.06398,-0.279921 0.06398,-0.487862 0,-0.407884 -0.223937,-0.59983 -0.215938,-0.199943 -0.607827,-0.199943 -0.407884,0 -0.783778,0.255928 -0.375893,0.247929 -0.655813,0.687804 -0.279921,0.431878 -0.391889,0.967726 l -0.455871,2.119398 z m 6.19825,0.07998 q -0.7358,0 -1.14368,-0.447873 -0.39989,-0.45587 -0.39989,-1.175666 0,-0.551843 0.14396,-1.047702 0.15196,-0.503857 0.43988,-0.887748 0.28792,-0.391889 0.7038,-0.615826 0.41588,-0.223936 0.95173,-0.223936 0.27192,0 0.53585,0.05598 0.26392,0.04799 0.46386,0.143959 l -0.096,0.279921 q -0.19194,-0.09597 -0.43987,-0.143959 -0.23994,-0.05598 -0.46387,-0.05598 -0.59183,0 -1.02371,0.335905 -0.43188,0.335905 -0.67181,0.903744 -0.23193,0.559841 -0.23193,1.239648 0,0.575836 0.3199,0.967725 0.31991,0.391889 0.93574,0.391889 0.27992,0 0.51985,-0.06398 0.24793,-0.06398 0.49586,-0.17595 v 0.27992 q -0.19994,0.103971 -0.45587,0.167953 -0.25593,0.07198 -0.58383,0.07198 z m 3.59897,0 q -0.39989,0 -0.74379,-0.167952 -0.3359,-0.17595 -0.54384,-0.535848 -0.19995,-0.359898 -0.19995,-0.927737 0,-0.559841 0.15996,-1.0557 0.16795,-0.503857 0.45587,-0.887748 0.29591,-0.383891 0.6878,-0.59983 0.39189,-0.223936 0.86376,-0.223936 0.47186,0 0.75178,0.263925 0.28792,0.255927 0.28792,0.671809 0,0.49586 -0.3439,0.799773 -0.3359,0.303914 -0.92774,0.439875 -0.59183,0.135962 -1.34361,0.135962 h -0.24793 q -0.008,0.08798 -0.016,0.207941 -0.008,0.119966 -0.008,0.247929 0,0.655814 0.32791,1.007714 0.32791,0.343903 0.89575,0.343903 0.3359,0 0.60782,-0.08798 0.27193,-0.08798 0.49586,-0.183948 v 0.287918 q -0.19994,0.103971 -0.51185,0.183948 -0.30392,0.07998 -0.64782,0.07998 z m -0.77578,-2.35933 q 0.63182,0 1.11968,-0.111968 0.49586,-0.119966 0.77578,-0.359898 0.28792,-0.239932 0.28792,-0.615825 0,-0.287919 -0.19194,-0.479864 -0.19195,-0.191946 -0.57584,-0.191946 -0.3599,0 -0.7118,0.207941 -0.3519,0.207941 -0.63182,0.59983 -0.27192,0.391889 -0.39189,0.95173 z m 4.35077,2.35933 q -0.59183,0 -0.89575,-0.399886 -0.29591,-0.407884 -0.29591,-1.095689 0,-0.503857 0.13596,-1.015712 0.13596,-0.511855 0.40788,-0.935734 0.27192,-0.431878 0.67981,-0.687805 0.40788,-0.255927 0.94373,-0.255927 0.38389,0 0.63182,0.151957 0.25593,0.143959 0.39189,0.367895 0.14396,0.223937 0.19195,0.463868 h 0.024 q 0.04,-0.271922 0.088,-0.543845 0.056,-0.279921 0.11197,-0.543846 l 0.3519,-1.663528 h 0.30392 l -1.28764,6.078275 h -0.25593 l 0.19995,-1.0557 h -0.024 q -0.16795,0.263925 -0.42388,0.52785 -0.24792,0.263925 -0.56783,0.439875 -0.31991,0.167952 -0.7118,0.167952 z m 0.064,-0.27992 q 0.3599,0 0.7038,-0.207941 0.3519,-0.215939 0.63982,-0.583835 0.28792,-0.375893 0.45587,-0.855757 0.17595,-0.487861 0.17595,-1.023709 0,-0.575837 -0.28792,-0.871753 -0.28792,-0.295916 -0.76778,-0.295916 -0.45587,0 -0.80777,0.231935 -0.3439,0.231934 -0.57584,0.615825 -0.23193,0.383891 -0.3519,0.847759 -0.11996,0.463868 -0.11996,0.927737 0,0.583834 0.23193,0.903743 0.23193,0.311912 0.7038,0.311912 z m 4.5747,0.199943 3.28706,-5.726375 h 0.31192 l 0.81576,5.726375 h -0.30391 l -0.30391,-2.087407 h -2.26336 l -1.19966,2.087407 z m 1.70351,-2.375326 h 2.06342 l -0.29592,-2.143391 q -0.032,-0.183948 -0.056,-0.399887 -0.024,-0.223936 -0.04,-0.431877 h -0.016 q -0.096,0.207941 -0.20794,0.423879 -0.11197,0.207941 -0.23193,0.415882 z m 3.48701,2.375326 1.20766,-5.710379 h 1.24765 q 0.81576,0 1.22365,0.367895 0.41588,0.367896 0.41588,1.055701 0,0.847759 -0.55984,1.367612 -0.55184,0.519852 -1.71152,0.519852 h -0.99971 l -0.50386,2.399319 z m 1.87147,-2.679239 q 0.98372,0 1.43959,-0.431878 0.46387,-0.439875 0.46387,-1.167668 0,-0.59983 -0.3519,-0.871753 -0.3519,-0.271923 -1.01571,-0.271923 h -0.93574 l -0.58383,2.743222 z m 2.23936,2.679239 0.048,-0.207941 0.55185,-0.04799 1.10368,-5.190527 -0.53584,-0.05598 0.04,-0.207941 h 1.41559 l -0.04,0.207941 -0.56784,0.05598 -1.10369,5.190527 0.54385,0.04799 -0.04,0.207941 z m 3.58298,0.07998 q -0.41588,0 -0.7198,-0.09597 -0.29591,-0.09597 -0.48786,-0.191946 v -0.327907 q 0.23194,0.135961 0.54385,0.239932 0.31991,0.09597 0.66381,0.09597 0.62382,0 0.89575,-0.255928 0.27992,-0.255927 0.27992,-0.647816 0,-0.247929 -0.11997,-0.407884 -0.11997,-0.167952 -0.31991,-0.287918 -0.19994,-0.127964 -0.43188,-0.255928 -0.27192,-0.151956 -0.49586,-0.295916 -0.22393,-0.151956 -0.3519,-0.343902 -0.12796,-0.199943 -0.12796,-0.487861 0,-0.383891 0.18395,-0.631821 0.18395,-0.255927 0.50386,-0.375893 0.3199,-0.127964 0.71179,-0.127964 0.3759,0 0.67181,0.07998 0.30392,0.07198 0.51985,0.17595 l -0.10397,0.271923 q -0.20794,-0.10397 -0.49585,-0.17595 -0.27993,-0.07198 -0.59983,-0.07198 -0.46387,0 -0.77578,0.207941 -0.30392,0.199944 -0.30392,0.623823 0,0.335905 0.23993,0.519853 0.24793,0.17595 0.60783,0.375893 0.25593,0.143959 0.48786,0.295916 0.23194,0.143959 0.3759,0.359898 0.14396,0.207941 0.14396,0.52785 0,0.519853 -0.3679,0.863755 -0.3679,0.343902 -1.12768,0.343902 z m 4.43074,-0.07998 0.90374,-4.238797 h 0.25593 l -0.20794,1.047703 h 0.024 q 0.12796,-0.239932 0.3359,-0.503857 0.21594,-0.263925 0.51186,-0.439875 0.30391,-0.183948 0.6958,-0.183948 0.51985,0 0.74379,0.319909 0.22394,0.311912 0.20794,0.823766 h 0.016 q 0.13596,-0.255927 0.3519,-0.519852 0.22393,-0.263925 0.52785,-0.439875 0.31191,-0.183948 0.6958,-0.183948 0.47986,0 0.74379,0.271923 0.26392,0.263925 0.26392,0.77578 0,0.247929 -0.072,0.559841 l -0.56783,2.71123 h -0.31192 l 0.58384,-2.743221 q 0.056,-0.271923 0.056,-0.487862 0,-0.407884 -0.20794,-0.607827 -0.19994,-0.199944 -0.55984,-0.199944 -0.37589,0 -0.7198,0.263926 -0.3439,0.255927 -0.59983,0.687804 -0.24793,0.431878 -0.35989,0.943732 l -0.44788,2.143392 h -0.31191 l 0.56784,-2.647249 q 0.04,-0.17595 0.048,-0.335904 0.016,-0.159955 0.016,-0.263925 0,-0.375894 -0.19194,-0.583835 -0.19195,-0.207941 -0.55185,-0.207941 -0.37589,0 -0.71979,0.263926 -0.33591,0.263925 -0.59183,0.695802 -0.25593,0.431877 -0.3679,0.959728 l -0.44787,2.119398 z m 8.10971,0.07998 q -0.55984,0 -0.86376,-0.399886 -0.30391,-0.407884 -0.30391,-1.095689 0,-0.511855 0.13596,-1.02371 0.14396,-0.511854 0.41588,-0.935734 0.27192,-0.42388 0.67181,-0.679807 0.39989,-0.263925 0.91174,-0.263925 0.3599,0 0.58384,0.159955 0.23193,0.151956 0.35989,0.383891 0.12797,0.223936 0.17595,0.447872 h 0.024 l 0.22393,-0.911741 h 0.24793 l -0.89574,4.238797 h -0.25593 l 0.19994,-1.047703 h -0.024 q -0.14396,0.239932 -0.38389,0.503857 -0.23993,0.263925 -0.55184,0.447873 -0.31192,0.17595 -0.67181,0.17595 z m 0.064,-0.27992 q 0.3519,0 0.7118,-0.24793 0.36789,-0.255927 0.64781,-0.687805 0.28792,-0.439875 0.40789,-0.975723 0.096,-0.471866 0.096,-0.759784 0,-0.551843 -0.25593,-0.855757 -0.25592,-0.311912 -0.6958,-0.311912 -0.43188,0 -0.77578,0.231935 -0.3359,0.223936 -0.57584,0.607827 -0.23193,0.383891 -0.3519,0.847759 -0.11996,0.463869 -0.11996,0.935735 0,0.567839 0.22393,0.895746 0.23194,0.319909 0.68781,0.319909 z m 4.36676,0.27992 q -0.59183,0 -0.89574,-0.399886 -0.29592,-0.407884 -0.29592,-1.095689 0,-0.503857 0.13596,-1.015712 0.13596,-0.511855 0.40789,-0.935734 0.27192,-0.431878 0.6798,-0.687805 0.40789,-0.255927 0.94374,-0.255927 0.38389,0 0.63182,0.151957 0.25592,0.143959 0.39189,0.367895 0.14396,0.223937 0.19194,0.463868 h 0.024 q 0.04,-0.271922 0.088,-0.543845 0.056,-0.279921 0.11197,-0.543846 l 0.3519,-1.663528 h 0.30391 l -1.28763,6.078275 h -0.25593 l 0.19994,-1.0557 h -0.024 q -0.16795,0.263925 -0.42388,0.52785 -0.24793,0.263925 -0.56784,0.439875 -0.31991,0.167952 -0.7118,0.167952 z m 0.064,-0.27992 q 0.35989,0 0.7038,-0.207941 0.3519,-0.215939 0.63981,-0.583835 0.28792,-0.375893 0.45587,-0.855757 0.17595,-0.487861 0.17595,-1.023709 0,-0.575837 -0.28791,-0.871753 -0.28792,-0.295916 -0.76779,-0.295916 -0.45587,0 -0.80777,0.231935 -0.3439,0.231934 -0.57583,0.615825 -0.23194,0.383891 -0.3519,0.847759 -0.11997,0.463868 -0.11997,0.927737 0,0.583834 0.23194,0.903743 0.23193,0.311912 0.7038,0.311912 z m 4.86261,0.27992 q -0.39989,0 -0.74379,-0.167952 -0.3359,-0.17595 -0.54384,-0.535848 -0.19995,-0.359898 -0.19995,-0.927737 0,-0.559841 0.15996,-1.0557 0.16795,-0.503857 0.45587,-0.887748 0.29591,-0.383891 0.6878,-0.59983 0.39189,-0.223936 0.86376,-0.223936 0.47186,0 0.75178,0.263925 0.28792,0.255927 0.28792,0.671809 0,0.49586 -0.3439,0.799773 -0.33591,0.303914 -0.92774,0.439875 -0.59183,0.135962 -1.34362,0.135962 h -0.24793 q -0.008,0.08798 -0.016,0.207941 -0.008,0.119966 -0.008,0.247929 0,0.655814 0.32791,1.007714 0.3279,0.343903 0.89574,0.343903 0.33591,0 0.60783,-0.08798 0.27192,-0.08798 0.49586,-0.183948 v 0.287918 q -0.19994,0.103971 -0.51185,0.183948 -0.30392,0.07998 -0.64782,0.07998 z m -0.77578,-2.35933 q 0.63182,0 1.11968,-0.111968 0.49586,-0.119966 0.77578,-0.359898 0.28792,-0.239932 0.28792,-0.615825 0,-0.287919 -0.19195,-0.479864 -0.19194,-0.191946 -0.57583,-0.191946 -0.3599,0 -0.7118,0.207941 -0.3519,0.207941 -0.63182,0.59983 -0.27192,0.391889 -0.39189,0.95173 z m 6.79807,2.35933 q -0.39988,0 -0.74379,-0.167952 -0.3359,-0.17595 -0.54384,-0.535848 -0.19994,-0.359898 -0.19994,-0.927737 0,-0.559841 0.15995,-1.0557 0.16795,-0.503857 0.45587,-0.887748 0.29592,-0.383891 0.6878,-0.59983 0.39189,-0.223936 0.86376,-0.223936 0.47187,0 0.75179,0.263925 0.28791,0.255927 0.28791,0.671809 0,0.49586 -0.3439,0.799773 -0.3359,0.303914 -0.92773,0.439875 -0.59184,0.135962 -1.34362,0.135962 h -0.24793 q -0.008,0.08798 -0.016,0.207941 -0.008,0.119966 -0.008,0.247929 0,0.655814 0.32791,1.007714 0.32791,0.343903 0.89575,0.343903 0.3359,0 0.60782,-0.08798 0.27193,-0.08798 0.49586,-0.183948 v 0.287918 q -0.19994,0.103971 -0.51185,0.183948 -0.30391,0.07998 -0.64782,0.07998 z m -0.77578,-2.35933 q 0.63182,0 1.11969,-0.111968 0.49585,-0.119966 0.77577,-0.359898 0.28792,-0.239932 0.28792,-0.615825 0,-0.287919 -0.19194,-0.479864 -0.19195,-0.191946 -0.57584,-0.191946 -0.3599,0 -0.7118,0.207941 -0.3519,0.207941 -0.63182,0.59983 -0.27192,0.391889 -0.39189,0.95173 z m 4.32677,2.35933 q -0.55984,0 -0.86375,-0.399886 -0.30392,-0.407884 -0.30392,-1.095689 0,-0.511855 0.13597,-1.02371 0.14395,-0.511854 0.41588,-0.935734 0.27192,-0.42388 0.67181,-0.679807 0.39988,-0.263925 0.91174,-0.263925 0.3599,0 0.58383,0.159955 0.23194,0.151956 0.3599,0.383891 0.12796,0.223936 0.17595,0.447872 h 0.024 l 0.22394,-0.911741 h 0.24793 l -0.89575,4.238797 h -0.25592 l 0.19994,-1.047703 h -0.024 q -0.14396,0.239932 -0.38389,0.503857 -0.23994,0.263925 -0.55185,0.447873 -0.31191,0.17595 -0.67181,0.17595 z m 0.064,-0.27992 q 0.3519,0 0.7118,-0.24793 0.3679,-0.255927 0.64782,-0.687805 0.28792,-0.439875 0.40788,-0.975723 0.096,-0.471866 0.096,-0.759784 0,-0.551843 -0.25593,-0.855757 -0.25593,-0.311912 -0.6958,-0.311912 -0.43188,0 -0.77578,0.231935 -0.33591,0.223936 -0.57584,0.607827 -0.23193,0.383891 -0.3519,0.847759 -0.11997,0.463869 -0.11997,0.935735 0,0.567839 0.22394,0.895746 0.23193,0.319909 0.6878,0.319909 z m 4.07086,0.27992 q -0.41588,0 -0.71979,-0.09597 -0.29592,-0.09597 -0.48787,-0.191946 v -0.327907 q 0.23194,0.135961 0.54385,0.239932 0.31991,0.09597 0.66381,0.09597 0.62382,0 0.89575,-0.255928 0.27992,-0.255927 0.27992,-0.647816 0,-0.247929 -0.11997,-0.407884 -0.11996,-0.167952 -0.31991,-0.287918 -0.19994,-0.127964 -0.43188,-0.255928 -0.27192,-0.151956 -0.49585,-0.295916 -0.22394,-0.151956 -0.3519,-0.343902 -0.12797,-0.199943 -0.12797,-0.487861 0,-0.383891 0.18395,-0.631821 0.18395,-0.255927 0.50386,-0.375893 0.31991,-0.127964 0.71179,-0.127964 0.3759,0 0.67181,0.07998 0.30392,0.07198 0.51986,0.17595 l -0.10397,0.271923 q -0.20795,-0.10397 -0.49586,-0.17595 -0.27992,-0.07198 -0.59983,-0.07198 -0.46387,0 -0.77578,0.207941 -0.30392,0.199944 -0.30392,0.623823 0,0.335905 0.23994,0.519853 0.24792,0.17595 0.60782,0.375893 0.25593,0.143959 0.48786,0.295916 0.23194,0.143959 0.3759,0.359898 0.14396,0.207941 0.14396,0.52785 0,0.519853 -0.3679,0.863755 -0.36789,0.343902 -1.12768,0.343902 z m 1.70351,1.855474 q -0.29592,0 -0.47987,-0.07998 v -0.27992 q 0.096,0.03999 0.20794,0.06398 0.11197,0.02399 0.27193,0.02399 0.29591,0 0.52785,-0.223937 0.23193,-0.215938 0.49586,-0.671809 l 0.46387,-0.799773 -0.68781,-4.206806 h 0.30391 l 0.43188,2.703233 q 0.064,0.375893 0.096,0.687805 0.04,0.303913 0.056,0.495859 h 0.016 q 0.088,-0.17595 0.23994,-0.479864 0.15195,-0.303914 0.3439,-0.631821 l 1.53556,-2.775212 h 0.33591 l -2.86319,5.118547 q -0.28792,0.511855 -0.59183,0.783778 -0.29592,0.271923 -0.7038,0.271923 z"
           id="text2"
           aria-label="Building advanced APIs made easy" /></g></g></g></svg>